Coordinates
version=1
nRows=14
nColumns=28
inDegrees=yes

Units are S.I. units (second, meters, Newtons, ...)
Angles are in degrees.

endheader
time	pelvis_tilt	pelvis_list	pelvis_rotation	pelvis_tx	pelvis_ty	pelvis_tz	hip_flexion_r	hip_adduction_r	hip_rotation_r	knee_angle_r	ankle_angle_r	subtalar_angle_r	mtp_angle_r	hip_flexion_l	hip_adduction_l	hip_rotation_l	knee_angle_l	socket_flexion	socket_adduction	socket_rotation	socket_tx	socket_ty	socket_tz	foot_flex	lumbar_extension	lumbar_bending	lumbar_rotation
      0.32083333	      3.41651068	     -0.41342179	     -6.73824132	     -0.43863709	      1.01797941	      0.28710296	     10.77143345	      1.19403486	      4.93991241	    -63.97257960	      2.60237247	    -15.61368437	     24.59610665	     -0.54635999	      1.49028958	     -9.63994705	    -14.05053520	     -2.13416026	      0.00000000	      0.00000000	      0.00000000	      0.00000000	      0.00000000	      1.94092573	    -12.00013026	     -3.70124533	      7.11825632
      0.32500000	      3.46334019	     -0.43378439	     -6.65010605	     -0.43378808	      1.01829457	      0.28683899	     11.30733130	      1.27404014	      4.93580054	    -63.73156821	      2.65318296	    -15.60014927	     24.61040109	     -0.90808278	      1.52106896	     -9.61936779	    -14.06561358	     -2.22094886	      0.00000000	      0.00000000	      0.00000000	      0.00000000	      0.00000000	      1.97801526	    -12.11066186	     -3.70194561	      7.10386425
      0.32916667	      3.50711697	     -0.47556012	     -6.56483875	     -0.42898881	      1.01856170	      0.28660968	     11.83691435	      1.38102142	      4.93453771	    -63.46088509	      2.75449538	    -15.57795888	     24.63709026	     -1.27220687	      1.52481224	     -9.58034840	    -14.06197235	     -2.28704612	      0.00000000	      0.00000000	      0.00000000	      0.00000000	      0.00000000	      2.03700029	    -12.21132039	     -3.66922015	      7.07879514
      0.33333333	      3.90784139	     -0.84310440	     -6.25415650	     -0.42331511	      1.01977659	      0.28582261	     11.65488939	      1.70243457	      4.68925782	    -62.77300324	      3.88357463	    -14.27980547	     25.30349743	     -2.65100990	      1.31882556	     -9.13666162	    -12.38585036	     -1.29282415	      0.00000000	      0.00000000	      0.00000000	      0.00000000	      0.00000000	      2.32816030	    -12.66798999	     -3.10599238	      6.25739373
      0.33750000	      3.94613102	     -0.85548064	     -6.15902309	     -0.41863221	      1.01996837	      0.28567918	     12.19115214	      1.79158671	      4.69674978	    -62.46071557	      3.94389968	    -14.28633340	     25.31434167	     -2.99142508	      1.34146792	     -9.12984204	    -12.40532680	     -1.37555566	      0.00000000	      0.00000000	      0.00000000	      0.00000000	      0.00000000	      2.36296563	    -12.77390259	     -3.11844704	      6.25567763
      0.34166667	      3.88714033	     -1.20338248	     -5.95843936	     -0.41356454	      1.02034196	      0.28535597	     12.61141172	      2.30622326	      4.70837362	    -61.84675759	      4.54917029	    -14.22186088	     25.48083352	     -3.41633010	      1.00168919	     -8.96711394	    -12.00758446	     -1.15960895	      0.00000000	      0.00000000	      0.00000000	      0.00000000	      0.00000000	      2.58031838	    -12.73540554	     -2.68045942	      6.17255302
      0.34583333	      3.92473247	     -1.21061121	     -5.85224585	     -0.40904505	      1.02046707	      0.28520363	     13.14404846	      2.37955565	      4.69862343	    -61.48586704	      4.60405415	    -14.21230106	     25.49041968	     -3.73991374	      1.02687865	     -8.96992965	    -12.01413893	     -1.21439509	      0.00000000	      0.00000000	      0.00000000	      0.00000000	      0.00000000	      2.61936203	    -12.85448192	     -2.69704592	      6.15094142
      0.35000000	      3.84252947	     -1.56236042	     -5.53915194	     -0.40391343	      1.02081344	      0.28472811	     13.53561473	      2.83831377	      4.55638459	    -60.73855856	      5.17048558	    -13.98270674	     25.65380329	     -4.20667677	      0.68084446	     -8.70301476	    -11.37284590	     -0.82928541	      0.00000000	      0.00000000	      0.00000000	      0.00000000	      0.00000000	      2.86325941	    -12.79206227	     -2.20884903	      5.82346349
      0.35416667	      3.86407047	     -1.73397251	     -5.26084137	     -0.39894571	      1.02112574	      0.28428824	     13.90550240	      3.03816667	      4.37241174	    -60.09267258	      5.48175464	    -13.68609152	     25.76918710	     -4.80301815	      0.54883999	     -8.45620894	    -10.58016859	     -0.35462312	      0.00000000	      0.00000000	      0.00000000	      0.00000000	      0.00000000	      2.99828419	    -12.85973478	     -1.94465272	      5.38882887
      0.35833333	      3.88954323	     -1.73738769	     -5.10071619	     -0.39450727	      1.02123772	      0.28411643	     14.38441234	      3.10960317	      4.36726096	    -59.55633797	      5.59331953	    -13.65850016	     25.78617608	     -5.13153921	      0.57178407	     -8.47423018	    -10.48462269	     -0.30611553	      0.00000000	      0.00000000	      0.00000000	      0.00000000	      0.00000000	      3.08004157	    -12.97479538	     -1.97001679	      5.32978467
      0.36250000	      4.11734795	     -1.91419087	     -4.92565285	     -0.38925127	      1.02183534	      0.28376216	     14.47814960	      3.27145634	      4.21957555	    -58.81947007	      6.00679015	    -13.24742581	     25.86489166	     -6.39746696	      0.51718907	     -8.20789464	     -8.45132090	      0.92132887	      0.00000000	      0.00000000	      0.00000000	      0.00000000	      0.00000000	      3.22495682	    -13.24410099	     -1.69002738	      4.79251588
      0.36666667	      4.05226264	     -2.09090310	     -4.75172745	     -0.38464258	      1.02189049	      0.28358619	     14.95985622	      3.54492360	      4.17826235	    -58.12950701	      6.25942288	    -13.25763287	     25.88086550	     -6.71814194	      0.33650488	     -8.15404380	     -8.17896485	      1.06279205	      0.00000000	      0.00000000	      0.00000000	      0.00000000	      0.00000000	      3.37598308	    -13.23928995	     -1.48906297	      4.83560662
      0.37083333	      4.04440493	     -2.08539020	     -4.59483002	     -0.38041694	      1.02187233	      0.28343514	     15.46642116	      3.60007904	      4.16632433	    -57.52551273	      6.35023390	    -13.26312285	     25.87901301	     -6.96593426	      0.35443497	     -8.19471142	     -8.15447704	      1.09699642	      0.00000000	      0.00000000	      0.00000000	      0.00000000	      0.00000000	      3.45545452	    -13.35859586	     -1.52176541	      4.80600004
      0.37500000	      3.86104737	     -2.35543790	     -4.30264823	     -0.37542262	      1.02185283	      0.28299582	     15.96820060	      3.91371267	      3.95688010	    -56.66107964	      6.67564309	    -13.25498983	     25.84562250	     -7.33486768	      0.06896250	     -7.90575453	     -7.41603352	      1.52924823	      0.00000000	      0.00000000	      0.00000000	      0.00000000	      0.00000000	      3.64313882	    -13.16752238	     -1.11073425	      4.49307384
